<svg width="411" height="40" viewBox="0 0 411 40" fill="none" xmlns="http://www.w3.org/2000/svg">
<path d="M53.002 0.722326C55.8442 0.989073 57.6163 1.63356 58.3181 2.65606C59.0199 3.67861 59.4232 5.61259 59.5285 8.45774V13.8461H52.844V12.5253C52.7036 11.2361 52.4403 10.3026 52.0544 9.72467C51.7035 9.14678 51.0018 8.72447 49.9492 8.45774H6.57932L6.63168 32.0645H49.9492C50.8263 32.0201 51.4757 31.6645 51.8968 30.9977C52.3179 30.3308 52.6335 29.0636 52.844 27.1964V26.6497H59.5285V32.0645C59.3531 35.132 58.897 37.2216 58.1601 38.333C57.4583 39.4444 55.7389 40 53.002 40H0.0523591V32.0645L0 8.45774V0.722326H53.002Z" fill="white"/>
<path d="M97.2231 39.5157H82.5585V0.581113H97.2231C109.221 0.581113 115.713 8.01937 115.713 20.0484C115.713 32.0775 109.279 39.5157 97.2231 39.5157ZM96.4117 6.39225H89.1083V33.7046H96.4696C104.469 33.7046 108.874 29.8111 108.874 20.0484C108.874 10.2857 104.469 6.39225 96.4117 6.39225Z" fill="white"/>
<path d="M124.334 39.5157H117.785V0.581113H124.334V39.5157Z" fill="white"/>
<path d="M142.373 39.9806C132.403 39.9806 126.433 32.368 126.433 19.9903C126.433 8.54237 133.099 0 145.155 0C153.328 0 159.356 3.95157 162.023 10.9831L156.342 15.0508C155.183 10.0533 151.473 6.21792 145.213 6.21792C137.098 6.21792 133.389 11.9128 133.389 19.9903C133.389 28.2421 137.156 33.8208 144.808 33.8208C151.357 33.8208 154.255 30.276 155.647 24.8717H144.46V19.3511H162.196V39.5157H158.023L156.226 24.8717C155.936 33.6465 151.01 39.9806 142.373 39.9806Z" fill="white"/>
<path d="M171.975 39.5157H165.425V0.581113H171.975V39.5157Z" fill="white"/>
<path d="M189.074 39.5157H182.525V6.39225H170.642V0.581113H201.015V6.39225H189.074V39.5157Z" fill="white"/>
<path d="M199.446 39.5157H192.549L207.735 0.581113H215.27L230.456 39.5157H223.269L219.559 29.6949H203.156L199.446 39.5157ZM209.3 13.4818L205.3 24H217.415L213.473 13.4818L211.387 6.45036L209.3 13.4818Z" fill="white"/>
<path d="M255.421 39.5157H228.99V0.581113H235.539V33.7046H255.421V39.5157Z" fill="white"/>
<path d="M281.792 39.9806C269.852 39.9806 263.128 31.2058 263.128 19.9903C263.128 8.77482 269.852 0 281.792 0C290.371 0 296.283 4.41646 299.007 12.0291L293.327 16.2131C292.11 10.3438 288.516 6.21792 281.85 6.21792C273.852 6.21792 270.084 11.9128 270.084 19.9903C270.084 28.0097 273.852 33.7627 281.85 33.7627C288.516 33.7627 292.11 29.5787 293.327 23.7676L299.007 27.9516C296.283 35.5061 290.371 39.9806 281.792 39.9806Z" fill="white"/>
<path d="M306.746 39.5157H300.196V0.581113H317.701C325.583 0.581113 331.496 4.64891 331.496 12.6683C331.496 19.1768 327.033 23.0121 320.946 23.7094C323.265 24.4068 324.83 25.8596 326.221 28.3002L332.829 39.5157H325.294L318.57 27.9516C317.121 25.3366 315.15 24.4068 311.499 24.4068H306.746V39.5157ZM317.063 6.39225H306.746V19.0605H317.063C321.178 19.0605 324.714 17.5496 324.714 12.8426C324.714 7.90315 321.178 6.39225 317.063 6.39225Z" fill="white"/>
<path d="M360.179 39.5157H332.705V0.581113H360.179V6.39225H339.255V16.7361H356.586V22.5472H339.255V33.7046H360.179V39.5157Z" fill="white"/>
<path d="M375.701 39.5157H367.47L357.326 0.581113H364.862L369.904 23.2446L371.643 34.2276L373.904 23.6513L379.99 0.581113H388.452L394.423 23.6513L396.625 34.2276L398.422 23.2446L403.581 0.581113H411L400.741 39.5157H392.51L386.424 16.4455L384.163 5.57869L381.903 16.4455L375.701 39.5157Z" fill="white"/>
</svg>
